<svg version="1.1" id="Layer_1" xmlns="http://www.w3.org/2000/svg" xmlns:xlink="http://www.w3.org/1999/xlink" x="0px" y="0px"
	 width="100%" viewBox="0 0 1563 481" enable-background="new 0 0 1563 481" xml:space="preserve">
<path fill="#FFFFFF" opacity="1.000000" stroke="none" 
	d="
M1042.000000,482.000000 
	C694.709045,482.000000 347.918091,482.000000 1.063569,482.000000 
	C1.063569,321.728668 1.063569,161.457291 1.063569,1.092956 
	C522.000000,1.092956 1043.000000,1.092956 1563.967773,1.092956 
	C1563.967773,161.415359 1563.967773,321.707672 1563.967773,482.000000 
	C1390.123779,482.000000 1216.311890,482.000000 1042.000000,482.000000 
M46.433140,135.065430 
	C46.246418,135.364212 46.059696,135.662994 45.143730,136.001434 
	C40.741833,138.635162 36.339935,141.268875 31.186152,144.359970 
	C31.123821,146.184738 31.007334,148.009476 31.007019,149.834259 
	C30.997164,206.904587 30.993694,263.974915 31.005667,321.045258 
	C31.006922,327.030914 31.109545,333.016602 31.016808,339.928833 
	C31.010977,344.422729 31.289425,348.939117 30.936216,353.405518 
	C30.325466,361.128723 32.723156,367.842834 37.047123,374.796417 
	C40.150341,378.915558 42.604965,383.574921 47.955006,385.570557 
	C50.614918,386.562775 52.926403,388.472870 55.424595,389.917450 
	C69.336395,397.961975 83.249969,406.003479 97.176949,414.021698 
	C109.168617,420.925629 121.202530,427.756500 133.175079,434.693329 
	C147.078476,442.748901 161.020004,450.744171 174.784180,459.032623 
	C184.847717,465.092682 196.085098,469.425720 204.138809,478.562134 
	C204.874130,479.396301 206.392258,479.929047 207.551987,479.938019 
	C215.698502,480.001007 223.846375,479.889709 232.921036,479.985474 
	C239.883057,479.990814 246.847946,479.881165 253.805710,480.056000 
	C256.732666,480.129547 258.605408,479.296967 260.743317,477.039337 
	C263.792999,473.818817 267.770569,471.430786 271.505493,468.915375 
	C278.602203,464.135864 285.807861,459.518066 293.726257,454.975983 
	C300.844147,451.019135 307.962067,447.062317 315.802155,443.009460 
	C320.134338,440.555542 324.582153,438.282715 328.772583,435.606812 
	C335.660858,431.208130 342.382263,426.548157 349.757782,422.244904 
	C355.862091,418.860870 361.966400,415.476837 368.796722,411.996338 
	C375.184326,407.943573 381.571960,403.890778 388.712036,399.956726 
	C393.848724,396.978912 398.985413,394.001099 404.842407,390.963257 
	C408.887390,388.595032 412.932343,386.226807 417.673035,383.760986 
	C420.476196,380.236694 423.279358,376.712372 426.729218,372.878357 
	C431.404846,367.309296 431.864105,360.364197 431.882996,353.756653 
	C432.078827,285.346741 432.009888,216.936096 431.962952,148.525681 
	C431.961914,146.989761 431.354706,145.454254 430.733948,143.294968 
	C414.824036,134.029129 398.945465,124.709030 382.996735,115.510506 
	C360.473663,102.520233 337.861969,89.683418 315.355560,76.664513 
	C288.854736,61.335030 262.397034,45.930161 235.995941,30.429768 
	C231.891022,28.019720 228.692780,28.363272 225.063049,32.070927 
	C221.688080,34.025211 218.313126,35.979492 214.354401,38.210762 
	C213.234924,38.844719 212.115463,39.478676 210.324844,40.255463 
	C206.531937,42.776890 202.739044,45.298317 198.269073,47.975204 
	C196.856430,48.689499 195.443771,49.403793 193.330399,50.191402 
	C189.569641,52.496593 185.808884,54.801781 181.336014,57.165878 
	C176.911179,59.807415 172.486359,62.448948 167.362396,65.108444 
	C165.554871,66.347710 163.747345,67.586967 161.214005,68.956360 
	C154.140106,73.006248 147.066208,77.056145 139.445007,81.028458 
	C139.248840,81.325340 139.052673,81.622215 138.955048,81.944496 
	C138.955048,81.944496 138.900101,81.858841 138.177658,81.960747 
	C130.433517,86.593590 122.689362,91.226433 114.220856,95.994621 
	C109.485237,98.716171 104.749619,101.437729 99.305717,104.187698 
	C93.522949,107.752541 87.740189,111.317383 81.226936,114.988014 
	C75.963509,118.076225 70.700081,121.164436 65.232323,124.446365 
	C65.232323,124.446365 65.137344,124.711433 64.480469,124.963829 
	C63.944500,125.294899 63.408527,125.625977 62.147133,125.994576 
	C58.390316,128.314606 54.633499,130.634659 50.282707,132.991959 
	C49.840042,133.284225 49.397373,133.576492 48.327656,133.979218 
	C47.853573,134.295120 47.379494,134.611008 46.984184,134.980042 
	C46.984184,134.980042 46.946732,134.892715 46.433140,135.065430 
M1479.500000,191.000000 
	C1462.411743,191.000000 1445.323608,191.000000 1428.241211,191.000000 
	C1428.241211,243.598312 1428.241211,295.644043 1428.241211,348.000000 
	C1452.929321,348.000000 1477.377686,348.053833 1501.825317,347.954712 
	C1506.731934,347.934845 1511.689819,347.677795 1516.529907,346.925476 
	C1525.583130,345.518311 1533.935791,342.132233 1540.663574,335.754944 
	C1550.521240,326.410797 1553.558594,314.859558 1552.134766,301.421234 
	C1550.536377,286.335846 1538.661011,272.148621 1523.757568,268.971405 
	C1522.858887,268.779785 1522.045166,268.189728 1521.117554,267.749847 
	C1529.483032,263.680756 1537.724487,260.567627 1543.029785,252.580276 
	C1552.356201,238.539185 1550.573120,217.977402 1538.710327,206.073807 
	C1528.460938,195.789230 1516.101318,191.383423 1501.984009,191.031204 
	C1494.826782,190.852646 1487.661621,191.000000 1479.500000,191.000000 
M1262.000000,268.500000 
	C1262.000000,294.915314 1262.000000,321.330627 1262.000000,348.000000 
	C1282.658936,348.000000 1302.783447,348.056000 1322.907104,347.954742 
	C1327.151245,347.933411 1331.414307,347.507385 1335.631348,346.973907 
	C1354.624146,344.571320 1370.530029,336.253845 1384.020386,322.605591 
	C1402.289673,304.122681 1406.147827,281.196045 1403.684814,257.030579 
	C1401.902588,239.544678 1393.537720,224.574646 1380.145996,212.496170 
	C1365.334106,199.136841 1347.956665,191.992081 1328.397339,191.189575 
	C1307.781006,190.343674 1287.103027,190.995300 1266.451904,191.010162 
	C1265.020874,191.011200 1263.589966,191.157776 1262.000000,191.245422 
	C1262.000000,216.906113 1262.000000,242.203064 1262.000000,268.500000 
M574.037231,251.679092 
	C568.033997,270.412323 562.030701,289.145569 555.711670,308.864288 
	C542.698425,268.869476 530.063721,230.038177 517.439148,191.237946 
	C503.675842,191.237946 489.912506,191.237946 475.744965,191.237946 
	C476.399017,193.391342 476.876648,195.241547 477.517700,197.033264 
	C489.657410,230.964203 501.850128,264.876190 513.956116,298.819122 
	C519.390076,314.055145 524.599243,329.371613 530.101257,344.582550 
	C530.606445,345.979034 532.486572,347.832794 533.753967,347.852997 
	C548.247681,348.083771 562.747681,348.080627 577.241699,347.859924 
	C578.523987,347.840393 580.450562,346.098450 580.942932,344.743896 
	C591.067322,316.892853 601.012390,288.976654 611.024780,261.084747 
	C616.219482,246.613647 621.540466,232.187607 626.679382,217.696899 
	C629.793335,208.916229 632.668335,200.050827 635.726196,191.000061 
	C622.534241,191.000061 609.870483,190.927963 597.210144,191.101318 
	C595.802002,191.120605 593.516541,192.240051 593.148438,193.350159 
	C586.791504,212.520096 580.671692,231.768646 574.037231,251.679092 
M646.947998,307.526917 
	C653.912170,332.880981 675.114380,348.004486 700.501770,349.892365 
	C717.437378,351.151703 733.535767,347.872559 747.186340,336.937897 
	C756.842712,329.202698 763.976013,319.638977 766.870911,307.000275 
	C753.245361,307.000275 739.929016,306.977448 726.613098,307.044586 
	C725.573792,307.049835 724.004578,307.366272 723.582214,308.074829 
	C719.263733,315.319977 712.358398,316.102203 704.933594,316.027313 
	C694.280518,315.919800 686.527161,309.519470 684.626831,298.729858 
	C713.101868,298.729858 741.516357,298.729858 771.412720,298.729858 
	C770.586060,288.721283 770.442383,279.092896 768.885559,269.698730 
	C765.095398,246.828903 751.162964,232.323547 729.568115,225.021271 
	C719.681580,221.678177 709.531250,220.893433 698.942627,221.789734 
	C683.840759,223.068115 670.858398,228.706192 660.573120,239.237640 
	C649.470581,250.605896 643.917480,264.991241 644.121277,281.021362 
	C644.231079,289.655853 645.584106,298.274506 646.947998,307.526917 
M1110.347656,342.969086 
	C1114.861572,339.851990 1119.816406,337.213959 1123.813965,333.535706 
	C1142.017334,316.786743 1146.391235,295.239349 1142.733398,272.008820 
	C1140.462280,257.584412 1133.428833,245.214127 1121.446777,235.716400 
	C1108.026855,225.079117 1092.659180,221.399673 1076.226440,221.175797 
	C1070.183716,221.093491 1063.962891,222.458511 1058.083862,224.097488 
	C1037.717773,229.775192 1022.918945,241.908203 1015.990662,262.405579 
	C1012.524597,272.659821 1011.575378,283.089478 1012.836243,294.023102 
	C1014.966003,312.491394 1022.914429,327.264893 1038.057373,337.950775 
	C1046.968018,344.238678 1056.844604,347.879639 1067.904907,349.209412 
	C1082.521851,350.966827 1096.360962,349.680756 1110.347656,342.969086 
M896.545898,328.970276 
	C902.527710,322.192444 906.395325,314.398499 908.136414,305.000000 
	C895.574524,305.000000 883.288330,305.150635 871.010010,304.905457 
	C867.464661,304.834656 865.002319,305.558746 863.577026,308.929657 
	C859.169434,319.353912 837.234558,317.682922 831.780334,308.637238 
	C824.265076,296.173584 823.495789,283.635132 827.892029,270.124908 
	C830.646729,261.659393 836.383118,256.685730 844.693787,255.135834 
	C853.099365,253.568237 860.151245,256.512299 865.047852,263.908936 
	C865.658752,264.831787 866.932434,265.899139 867.908813,265.908813 
	C881.212036,266.040527 894.516907,265.997437 908.223145,265.997437 
	C905.022522,251.574203 898.230896,239.984512 886.110535,232.053055 
	C868.845276,220.754837 849.780457,218.938431 830.229370,223.507019 
	C812.442017,227.663498 798.992432,238.164368 791.472961,255.141235 
	C786.220215,267.000488 784.655151,279.410522 785.749573,292.536224 
	C786.716919,304.137695 789.400452,314.922943 795.973389,324.303833 
	C812.727966,348.215851 838.265747,353.365234 864.005188,348.453522 
	C876.837830,346.004669 887.387939,339.232941 896.545898,328.970276 
M974.524719,348.000000 
	C981.620789,348.000000 988.716858,348.000000 995.704224,348.000000 
	C995.704224,336.669525 995.704224,325.931915 995.704224,314.999969 
	C990.264343,314.999969 985.107422,315.214722 979.976257,314.942871 
	C974.217712,314.637695 970.733093,311.257111 970.870361,305.909668 
	C971.246521,291.257477 971.000000,276.589355 971.000000,261.927521 
	C971.000000,259.669464 971.000000,257.411407 971.000000,254.767609 
	C979.700623,254.767609 987.778381,254.767609 995.683899,254.767609 
	C995.683899,243.961868 995.683899,233.556900 995.683899,222.763031 
	C987.294617,222.763031 979.216675,222.763031 970.760620,222.763031 
	C970.760620,212.292526 970.760620,202.216400 970.760620,192.318420 
	C957.623657,192.318420 944.886230,192.318420 931.761597,192.318420 
	C931.761597,202.711380 931.761597,212.789719 931.761597,223.247726 
	C927.622192,223.247726 923.877869,223.247726 920.319336,223.247726 
	C920.319336,234.052856 920.319336,244.460114 920.319336,255.252991 
	C924.382751,255.252991 928.126953,255.252991 932.000000,255.252991 
	C932.000000,266.798523 931.869934,277.951050 932.037476,289.099121 
	C932.196350,299.672241 932.062744,310.305786 933.192505,320.790497 
	C934.092346,329.141022 938.252747,336.263702 945.757751,341.008392 
	C954.284485,346.399017 963.588318,348.404938 974.524719,348.000000 
M1187.500000,223.000000 
	C1181.072144,223.000000 1174.644165,223.000000 1168.250977,223.000000 
	C1168.250977,264.947815 1168.250977,306.328613 1168.250977,347.755981 
	C1181.234619,347.755981 1193.965820,347.755981 1207.000000,347.755981 
	C1207.000000,345.883362 1207.000000,344.251099 1207.000000,342.618835 
	C1207.000000,323.135101 1206.579346,303.639008 1207.149170,284.171967 
	C1207.524170,271.364166 1212.627197,263.751709 1226.986816,262.018616 
	C1232.292114,261.378296 1237.625610,260.972778 1243.000000,260.454987 
	C1243.000000,248.622772 1243.093628,236.966599 1242.880737,225.316025 
	C1242.854248,223.866623 1241.004883,221.116623 1240.331909,221.215958 
	C1232.175537,222.419907 1224.086304,224.145981 1218.063232,230.466995 
	C1214.331177,234.383698 1210.826172,238.516769 1206.762695,243.063568 
	C1206.762695,236.028275 1206.762695,229.615173 1206.762695,223.000000 
	C1200.447510,223.000000 1194.473511,223.000000 1187.500000,223.000000 
z"/>
<path fill="#0A007F" opacity="1.000000" stroke="none" 
	d="
M292.968292,454.833130 
	C285.807861,459.518066 278.602203,464.135864 271.505493,468.915375 
	C267.770569,471.430786 263.792999,473.818817 260.743317,477.039337 
	C258.605408,479.296967 256.732666,480.129547 253.805710,480.056000 
	C246.847946,479.881165 239.883057,479.990814 232.459473,479.451752 
	C231.993576,450.917847 231.989258,422.917633 231.953934,394.673218 
	C231.922913,394.429016 231.793579,393.952667 231.841492,393.489594 
	C231.864212,373.329071 231.839005,353.631622 231.836243,333.671814 
	C231.801117,333.244019 231.743530,333.078613 231.748138,332.454468 
	C231.770981,320.394775 231.731613,308.793854 231.705170,296.756104 
	C231.422867,290.320190 231.127640,284.321075 230.900085,277.836212 
	C230.337524,272.221771 229.707275,267.093048 229.384552,261.831299 
	C233.797256,258.802551 237.902451,255.906830 242.378464,253.003784 
	C252.500748,247.332489 262.252197,241.668533 272.356018,235.966721 
	C274.141632,235.118439 275.584290,234.324188 277.006622,233.495010 
	C289.282043,226.338806 301.553802,219.176300 313.944336,212.470734 
	C314.092896,215.087387 314.151398,217.248993 314.150757,219.410583 
	C314.131104,285.285797 314.105621,351.161011 313.799103,417.288177 
	C311.134460,424.181824 309.529388,431.254333 306.154419,437.346283 
	C302.651337,443.669586 297.435242,449.043823 292.968292,454.833130 
z"/>
<path fill="#08005D" opacity="1.000000" stroke="none" 
	d="
M231.984955,394.917450 
	C231.989258,422.917633 231.993576,450.917847 231.995850,479.376068 
	C223.846375,479.889709 215.698502,480.001007 207.551987,479.938019 
	C206.392258,479.929047 204.874130,479.396301 204.138809,478.562134 
	C196.085098,469.425720 184.847717,465.092682 174.784180,459.032623 
	C161.020004,450.744171 147.078476,442.748901 133.175079,434.693329 
	C121.202530,427.756500 109.168617,420.925629 97.176949,414.021698 
	C83.249969,406.003479 69.336395,397.961975 55.424595,389.917450 
	C52.926403,388.472870 50.614918,386.562775 47.955006,385.570557 
	C42.604965,383.574921 40.150341,378.915558 37.044594,374.086426 
	C40.677662,370.923767 44.217606,368.312744 47.967018,366.048553 
	C58.599686,359.627808 69.318001,353.348846 80.354263,346.970215 
	C83.102051,345.515289 85.462173,344.038391 87.900696,342.704865 
	C96.953110,337.754456 106.031334,332.851227 115.409042,328.077087 
	C143.642075,344.367706 171.542236,360.552734 199.502136,376.633881 
	C209.861313,382.591949 220.360748,388.306183 230.944595,394.329651 
	C231.345795,394.759460 231.643127,394.889374 231.984955,394.917450 
z"/>
<path fill="#000000" opacity="1.000000" stroke="none" 
	d="
M1480.000000,191.000000 
	C1487.661621,191.000000 1494.826782,190.852646 1501.984009,191.031204 
	C1516.101318,191.383423 1528.460938,195.789230 1538.710327,206.073807 
	C1550.573120,217.977402 1552.356201,238.539185 1543.029785,252.580276 
	C1537.724487,260.567627 1529.483032,263.680756 1521.117554,267.749847 
	C1522.045166,268.189728 1522.858887,268.779785 1523.757568,268.971405 
	C1538.661011,272.148621 1550.536377,286.335846 1552.134766,301.421234 
	C1553.558594,314.859558 1550.521240,326.410797 1540.663574,335.754944 
	C1533.935791,342.132233 1525.583130,345.518311 1516.529907,346.925476 
	C1511.689819,347.677795 1506.731934,347.934845 1501.825317,347.954712 
	C1477.377686,348.053833 1452.929321,348.000000 1428.241211,348.000000 
	C1428.241211,295.644043 1428.241211,243.598312 1428.241211,191.000000 
	C1445.323608,191.000000 1462.411743,191.000000 1480.000000,191.000000 
M1477.521484,284.000000 
	C1474.089600,284.000000 1470.657715,284.000000 1467.241699,284.000000 
	C1467.241699,295.593414 1467.241699,306.643341 1467.241699,318.000000 
	C1477.085815,318.000000 1486.691650,317.947723 1496.296631,318.014069 
	C1506.846802,318.086975 1512.710449,310.559113 1512.851440,301.084656 
	C1512.987915,291.898529 1506.236572,283.638184 1496.464844,283.963257 
	C1490.488403,284.162048 1484.500122,284.000000 1477.521484,284.000000 
M1472.599609,221.000000 
	C1470.828369,221.000000 1469.057129,221.000000 1467.227783,221.000000 
	C1467.227783,232.221344 1467.227783,242.942596 1467.227783,253.998978 
	C1475.229004,253.998978 1483.051636,254.494904 1490.769043,253.808273 
	C1495.219238,253.412338 1500.048096,251.926361 1503.726929,249.466187 
	C1509.208252,245.800827 1510.576538,237.163055 1507.995850,230.380432 
	C1505.850708,224.742294 1499.892456,221.004501 1493.032471,221.000778 
	C1486.547241,220.997253 1480.061890,221.000000 1472.599609,221.000000 
z"/>
<path fill="#000000" opacity="1.000000" stroke="none" 
	d="
M1262.000000,268.000000 
	C1262.000000,242.203064 1262.000000,216.906113 1262.000000,191.245422 
	C1263.589966,191.157776 1265.020874,191.011200 1266.451904,191.010162 
	C1287.103027,190.995300 1307.781006,190.343674 1328.397339,191.189575 
	C1347.956665,191.992081 1365.334106,199.136841 1380.145996,212.496170 
	C1393.537720,224.574646 1401.902588,239.544678 1403.684814,257.030579 
	C1406.147827,281.196045 1402.289673,304.122681 1384.020386,322.605591 
	C1370.530029,336.253845 1354.624146,344.571320 1335.631348,346.973907 
	C1331.414307,347.507385 1327.151245,347.933411 1322.907104,347.954742 
	C1302.783447,348.056000 1282.658936,348.000000 1262.000000,348.000000 
	C1262.000000,321.330627 1262.000000,294.915314 1262.000000,268.000000 
M1302.000000,291.500000 
	C1302.000000,300.264252 1302.000000,309.028534 1302.000000,318.000000 
	C1309.217285,318.000000 1315.862793,318.093597 1322.504639,317.980713 
	C1336.776123,317.738220 1348.009277,311.457397 1355.941895,299.831543 
	C1365.582520,285.702423 1365.674561,269.939941 1362.409424,253.878693 
	C1360.044312,242.243866 1353.194824,233.643051 1343.516602,227.186981 
	C1330.695679,218.634537 1316.259277,221.434708 1302.000000,220.992188 
	C1302.000000,244.550842 1302.000000,267.525421 1302.000000,291.500000 
z"/>
<path fill="#0C0087" opacity="1.000000" stroke="none" 
	d="
M115.099861,327.930267 
	C106.031334,332.851227 96.953110,337.754456 87.900696,342.704865 
	C85.462173,344.038391 83.102051,345.515289 80.164116,346.626129 
	C75.003220,345.550690 70.395035,344.702057 65.762909,344.014893 
	C54.236130,342.304840 42.698448,340.668274 31.165138,339.002258 
	C31.109545,333.016602 31.006922,327.030914 31.005667,321.045258 
	C30.993694,263.974915 30.997164,206.904587 31.007019,149.834259 
	C31.007334,148.009476 31.123821,146.184738 31.740879,144.426422 
	C43.187012,150.693726 54.078419,156.894577 65.172440,163.362518 
	C72.232216,167.474533 79.089386,171.319473 86.125893,175.449066 
	C94.173180,180.173599 102.041122,184.613464 110.069847,189.335464 
	C111.790688,190.746384 113.350739,191.875183 114.902824,193.472275 
	C114.893311,200.750549 114.883064,207.560532 114.891693,214.370499 
	C114.939232,251.905930 114.991379,289.441345 115.040848,327.216095 
	C115.039757,327.455414 115.099861,327.930267 115.099861,327.930267 
z"/>
<path fill="#3900FF" opacity="1.000000" stroke="none" 
	d="
M314.081055,417.036224 
	C314.105621,351.161011 314.131104,285.285797 314.150757,219.410583 
	C314.151398,217.248993 314.092896,215.087387 314.059387,212.462982 
	C314.056763,212.000198 314.285858,211.991394 314.563934,211.822906 
	C321.154114,208.029190 327.452545,204.379883 333.781342,200.784058 
	C344.834503,194.504013 355.906372,188.256882 367.045654,182.459839 
	C367.135437,192.736801 367.170013,202.549896 367.161285,212.362946 
	C367.108246,271.906616 367.045319,331.450287 366.658997,391.201843 
	C364.558502,403.819214 358.756531,413.969116 349.174011,421.998352 
	C342.382263,426.548157 335.660858,431.208130 328.772583,435.606812 
	C324.582153,438.282715 320.134338,440.555542 315.416138,442.584229 
	C315.021301,438.672607 315.121948,435.181671 314.977325,431.700958 
	C314.774017,426.808746 314.388611,421.924103 314.081055,417.036224 
z"/>
<path fill="#000000" opacity="1.000000" stroke="none" 
	d="
M574.268616,251.339554 
	C580.671692,231.768646 586.791504,212.520096 593.148438,193.350159 
	C593.516541,192.240051 595.802002,191.120605 597.210144,191.101318 
	C609.870483,190.927963 622.534241,191.000061 635.726196,191.000061 
	C632.668335,200.050827 629.793335,208.916229 626.679382,217.696899 
	C621.540466,232.187607 616.219482,246.613647 611.024780,261.084747 
	C601.012390,288.976654 591.067322,316.892853 580.942932,344.743896 
	C580.450562,346.098450 578.523987,347.840393 577.241699,347.859924 
	C562.747681,348.080627 548.247681,348.083771 533.753967,347.852997 
	C532.486572,347.832794 530.606445,345.979034 530.101257,344.582550 
	C524.599243,329.371613 519.390076,314.055145 513.956116,298.819122 
	C501.850128,264.876190 489.657410,230.964203 477.517700,197.033264 
	C476.876648,195.241547 476.399017,193.391342 475.744965,191.237946 
	C489.912506,191.237946 503.675842,191.237946 517.439148,191.237946 
	C530.063721,230.038177 542.698425,268.869476 555.711670,308.864288 
	C562.030701,289.145569 568.033997,270.412323 574.268616,251.339554 
z"/>
<path fill="#000000" opacity="1.000000" stroke="none" 
	d="
M646.662048,307.213623 
	C645.584106,298.274506 644.231079,289.655853 644.121277,281.021362 
	C643.917480,264.991241 649.470581,250.605896 660.573120,239.237640 
	C670.858398,228.706192 683.840759,223.068115 698.942627,221.789734 
	C709.531250,220.893433 719.681580,221.678177 729.568115,225.021271 
	C751.162964,232.323547 765.095398,246.828903 768.885559,269.698730 
	C770.442383,279.092896 770.586060,288.721283 771.412720,298.729858 
	C741.516357,298.729858 713.101868,298.729858 684.626831,298.729858 
	C686.527161,309.519470 694.280518,315.919800 704.933594,316.027313 
	C712.358398,316.102203 719.263733,315.319977 723.582214,308.074829 
	C724.004578,307.366272 725.573792,307.049835 726.613098,307.044586 
	C739.929016,306.977448 753.245361,307.000275 766.870911,307.000275 
	C763.976013,319.638977 756.842712,329.202698 747.186340,336.937897 
	C733.535767,347.872559 717.437378,351.151703 700.501770,349.892365 
	C675.114380,348.004486 653.912170,332.880981 646.662048,307.213623 
M726.172180,274.000000 
	C727.405457,273.925262 728.638733,273.850555 729.927429,273.772461 
	C726.671570,259.063751 714.674072,253.815765 704.150574,255.145538 
	C694.506836,256.364166 686.698425,262.281403 684.762207,274.000000 
	C698.262939,274.000000 711.752502,274.000000 726.172180,274.000000 
z"/>
<path fill="#000000" opacity="1.000000" stroke="none" 
	d="
M1109.962036,343.004669 
	C1096.360962,349.680756 1082.521851,350.966827 1067.904907,349.209412 
	C1056.844604,347.879639 1046.968018,344.238678 1038.057373,337.950775 
	C1022.914429,327.264893 1014.966003,312.491394 1012.836243,294.023102 
	C1011.575378,283.089478 1012.524597,272.659821 1015.990662,262.405579 
	C1022.918945,241.908203 1037.717773,229.775192 1058.083862,224.097488 
	C1063.962891,222.458511 1070.183716,221.093491 1076.226440,221.175797 
	C1092.659180,221.399673 1108.026855,225.079117 1121.446777,235.716400 
	C1133.428833,245.214127 1140.462280,257.584412 1142.733398,272.008820 
	C1146.391235,295.239349 1142.017334,316.786743 1123.813965,333.535706 
	C1119.816406,337.213959 1114.861572,339.851990 1109.962036,343.004669 
M1093.951904,310.573578 
	C1098.590332,306.675079 1101.457886,301.704773 1102.640625,295.803406 
	C1105.348511,282.292175 1104.267212,269.785797 1092.728271,260.246521 
	C1082.265015,251.596527 1066.739014,254.011551 1058.557129,264.723053 
	C1054.917603,269.487762 1053.916748,274.673767 1052.778442,280.279388 
	C1051.024658,288.914886 1052.910156,296.768921 1056.749268,304.063812 
	C1062.720703,315.410461 1080.933472,321.243988 1093.951904,310.573578 
z"/>
<path fill="#000000" opacity="1.000000" stroke="none" 
	d="
M896.283936,329.217712 
	C887.387939,339.232941 876.837830,346.004669 864.005188,348.453522 
	C838.265747,353.365234 812.727966,348.215851 795.973389,324.303833 
	C789.400452,314.922943 786.716919,304.137695 785.749573,292.536224 
	C784.655151,279.410522 786.220215,267.000488 791.472961,255.141235 
	C798.992432,238.164368 812.442017,227.663498 830.229370,223.507019 
	C849.780457,218.938431 868.845276,220.754837 886.110535,232.053055 
	C898.230896,239.984512 905.022522,251.574203 908.223145,265.997437 
	C894.516907,265.997437 881.212036,266.040527 867.908813,265.908813 
	C866.932434,265.899139 865.658752,264.831787 865.047852,263.908936 
	C860.151245,256.512299 853.099365,253.568237 844.693787,255.135834 
	C836.383118,256.685730 830.646729,261.659393 827.892029,270.124908 
	C823.495789,283.635132 824.265076,296.173584 831.780334,308.637238 
	C837.234558,317.682922 859.169434,319.353912 863.577026,308.929657 
	C865.002319,305.558746 867.464661,304.834656 871.010010,304.905457 
	C883.288330,305.150635 895.574524,305.000000 908.136414,305.000000 
	C906.395325,314.398499 902.527710,322.192444 896.283936,329.217712 
z"/>
<path fill="#000000" opacity="1.000000" stroke="none" 
	d="
M974.030273,348.000000 
	C963.588318,348.404938 954.284485,346.399017 945.757751,341.008392 
	C938.252747,336.263702 934.092346,329.141022 933.192505,320.790497 
	C932.062744,310.305786 932.196350,299.672241 932.037476,289.099121 
	C931.869934,277.951050 932.000000,266.798523 932.000000,255.252991 
	C928.126953,255.252991 924.382751,255.252991 920.319336,255.252991 
	C920.319336,244.460114 920.319336,234.052856 920.319336,223.247726 
	C923.877869,223.247726 927.622192,223.247726 931.761597,223.247726 
	C931.761597,212.789719 931.761597,202.711380 931.761597,192.318420 
	C944.886230,192.318420 957.623657,192.318420 970.760620,192.318420 
	C970.760620,202.216400 970.760620,212.292526 970.760620,222.763031 
	C979.216675,222.763031 987.294617,222.763031 995.683899,222.763031 
	C995.683899,233.556900 995.683899,243.961868 995.683899,254.767609 
	C987.778381,254.767609 979.700623,254.767609 971.000000,254.767609 
	C971.000000,257.411407 971.000000,259.669464 971.000000,261.927521 
	C971.000000,276.589355 971.246521,291.257477 970.870361,305.909668 
	C970.733093,311.257111 974.217712,314.637695 979.976257,314.942871 
	C985.107422,315.214722 990.264343,314.999969 995.704224,314.999969 
	C995.704224,325.931915 995.704224,336.669525 995.704224,348.000000 
	C988.716858,348.000000 981.620789,348.000000 974.030273,348.000000 
z"/>
<path fill="#FF2C98" opacity="1.000000" stroke="none" 
	d="
M366.985718,390.993958 
	C367.045319,331.450287 367.108246,271.906616 367.161285,212.362946 
	C367.170013,202.549896 367.135437,192.736801 367.107971,182.217545 
	C367.072266,181.346069 367.049438,181.180786 367.377075,180.972687 
	C377.832764,175.010300 387.938019,169.090698 398.241089,163.149857 
	C398.438934,163.128601 398.836212,163.150681 398.867126,163.608688 
	C398.907867,233.271622 399.011322,302.476929 398.751678,371.680817 
	C398.730682,377.278809 396.698822,383.045624 394.709137,388.402557 
	C393.192291,392.486633 390.261383,396.045502 387.959564,399.838013 
	C381.571960,403.890778 375.184326,407.943573 368.411865,411.571350 
	C368.019653,409.314941 368.097321,407.478455 367.988495,405.653046 
	C367.696930,400.764130 367.325409,395.880005 366.985718,390.993958 
z"/>
<path fill="#000000" opacity="1.000000" stroke="none" 
	d="
M1187.999756,223.000000 
	C1194.473511,223.000000 1200.447510,223.000000 1206.762695,223.000000 
	C1206.762695,229.615173 1206.762695,236.028275 1206.762695,243.063568 
	C1210.826172,238.516769 1214.331177,234.383698 1218.063232,230.466995 
	C1224.086304,224.145981 1232.175537,222.419907 1240.331909,221.215958 
	C1241.004883,221.116623 1242.854248,223.866623 1242.880737,225.316025 
	C1243.093628,236.966599 1243.000000,248.622772 1243.000000,260.454987 
	C1237.625610,260.972778 1232.292114,261.378296 1226.986816,262.018616 
	C1212.627197,263.751709 1207.524170,271.364166 1207.149170,284.171967 
	C1206.579346,303.639008 1207.000000,323.135101 1207.000000,342.618835 
	C1207.000000,344.251099 1207.000000,345.883362 1207.000000,347.755981 
	C1193.965820,347.755981 1181.234619,347.755981 1168.250977,347.755981 
	C1168.250977,306.328613 1168.250977,264.947815 1168.250977,223.000000 
	C1174.644165,223.000000 1181.072144,223.000000 1187.999756,223.000000 
z"/>
<path fill="#FFA16A" opacity="1.000000" stroke="none" 
	d="
M388.335815,399.897369 
	C390.261383,396.045502 393.192291,392.486633 394.709137,388.402557 
	C396.698822,383.045624 398.730682,377.278809 398.751678,371.680817 
	C399.011322,302.476929 398.907867,233.271622 399.191956,163.445679 
	C404.330841,159.854385 409.175812,156.884109 414.250122,153.948120 
	C414.479462,153.982391 414.933319,154.077850 414.954254,154.540833 
	C414.978882,224.388443 415.000763,293.773071 414.966217,363.157684 
	C414.961182,373.264252 412.341919,382.470642 404.819366,389.765930 
	C404.490143,390.085236 404.350189,390.599731 404.122070,391.023315 
	C398.985413,394.001099 393.848724,396.978912 388.335815,399.897369 
z"/>
<path fill="#441CF1" opacity="1.000000" stroke="none" 
	d="
M161.939819,68.826233 
	C163.747345,67.586967 165.554871,66.347710 167.850464,65.401886 
	C175.226212,69.795776 182.113922,73.896233 189.215179,78.260513 
	C193.330139,80.908958 197.231522,83.293579 201.092651,86.107574 
	C201.584427,88.775215 201.847351,91.121666 202.696030,93.232628 
	C206.037155,101.543297 209.586243,109.770073 213.014297,118.046150 
	C219.358093,133.361435 225.671036,148.689484 231.646820,163.966309 
	C221.220505,158.233719 211.144196,152.547028 200.860199,146.595795 
	C196.102859,143.550415 191.553207,140.769562 186.997131,137.611023 
	C185.354172,133.432205 183.682083,129.645966 182.087387,125.827370 
	C175.689102,110.506447 169.139252,95.244423 163.072067,79.793098 
	C161.777969,76.497421 162.270416,72.500229 161.939819,68.826233 
z"/>
<path fill="#1101BE" opacity="1.000000" stroke="none" 
	d="
M100.014000,104.159286 
	C104.749619,101.437729 109.485237,98.716171 114.761703,96.219467 
	C117.872574,98.281609 120.442612,100.118912 123.008194,102.371277 
	C123.346413,104.549530 123.406670,106.428497 124.074783,108.058281 
	C132.047653,127.507179 140.105042,146.921448 148.152145,166.339874 
	C155.438690,183.923004 162.781296,201.483246 169.955612,219.111984 
	C170.526215,220.514084 169.976700,222.372025 169.588135,223.969666 
	C168.517105,223.907028 167.805649,223.892868 167.027145,223.541626 
	C166.213318,222.586914 165.529648,221.865280 164.709991,221.367737 
	C156.812943,216.574142 148.892990,211.818283 140.985626,206.637604 
	C140.651947,204.460510 140.556625,202.604324 139.926727,200.951874 
	C138.041931,196.007355 135.952850,191.140549 133.934753,186.247025 
	C128.131836,172.175980 122.330231,158.104416 116.517418,144.037445 
	C111.023331,130.741821 105.515686,117.451782 100.014000,104.159286 
z"/>
<path fill="#A6BFFD" opacity="1.000000" stroke="none" 
	d="
M414.933319,154.077850 
	C414.933319,154.077850 414.479462,153.982391 414.057495,153.674133 
	C351.458862,117.468704 289.282166,81.571503 226.894806,45.418480 
	C222.768829,42.753025 218.853500,40.343399 214.938171,37.933773 
	C218.313126,35.979492 221.688080,34.025211 225.589386,32.330498 
	C226.773682,33.087677 227.387573,33.661366 228.096085,34.071659 
	C241.891586,42.060501 255.699875,50.027260 269.502075,58.004536 
	C304.726776,78.363411 339.971649,98.687508 375.163757,119.102608 
	C391.526733,128.594864 407.785889,138.266129 423.906250,148.149353 
	C420.791382,150.320908 417.862335,152.199371 414.933319,154.077850 
z"/>
<path fill="#7FA3FE" opacity="1.000000" stroke="none" 
	d="
M414.954254,154.540833 
	C417.862335,152.199371 420.791382,150.320908 424.138306,148.193756 
	C424.556152,147.945068 425.024414,148.017303 425.025482,148.484100 
	C424.981171,222.310730 424.935822,295.670563 424.573395,369.177124 
	C421.633667,373.729950 418.994843,378.126678 416.431915,382.567200 
	C416.290985,382.811340 416.781006,383.419708 416.977295,383.858551 
	C412.932343,386.226807 408.887390,388.595032 404.482239,390.993286 
	C404.350189,390.599731 404.490143,390.085236 404.819366,389.765930 
	C412.341919,382.470642 414.961182,373.264252 414.966217,363.157684 
	C415.000763,293.773071 414.978882,224.388443 414.954254,154.540833 
z"/>
<path fill="#1101C8" opacity="1.000000" stroke="none" 
	d="
M99.659859,104.173492 
	C105.515686,117.451782 111.023331,130.741821 116.517418,144.037445 
	C122.330231,158.104416 128.131836,172.175980 133.934753,186.247025 
	C135.952850,191.140549 138.041931,196.007355 139.926727,200.951874 
	C140.556625,202.604324 140.651947,204.460510 140.631012,206.589798 
	C138.969193,206.272385 137.654892,205.612457 136.369003,204.901154 
	C129.212448,200.942322 122.062805,196.971008 114.910797,193.003983 
	C113.350739,191.875183 111.790688,190.746384 110.437515,189.258789 
	C110.726662,187.184280 111.397392,185.225113 110.803291,183.789276 
	C101.283333,160.780807 91.602020,137.839111 81.957428,114.882217 
	C87.740189,111.317383 93.522949,107.752541 99.659859,104.173492 
z"/>
<path fill="#66FEB2" opacity="1.000000" stroke="none" 
	d="
M425.024414,148.017303 
	C425.024414,148.017303 424.556152,147.945068 424.324127,147.900665 
	C407.785889,138.266129 391.526733,128.594864 375.163757,119.102608 
	C339.971649,98.687508 304.726776,78.363411 269.502075,58.004536 
	C255.699875,50.027260 241.891586,42.060501 228.096085,34.071659 
	C227.387573,33.661366 226.773682,33.087677 225.930496,32.287743 
	C228.692780,28.363272 231.891022,28.019720 235.995941,30.429768 
	C262.397034,45.930161 288.854736,61.335030 315.355560,76.664513 
	C337.861969,89.683418 360.473663,102.520233 382.996735,115.510506 
	C398.945465,124.709030 414.824036,134.029129 430.700806,143.885834 
	C428.786560,145.656891 426.905487,146.837097 425.024414,148.017303 
z"/>
<path fill="#40FE9E" opacity="1.000000" stroke="none" 
	d="
M425.025482,148.484100 
	C426.905487,146.837097 428.786560,145.656891 430.848938,144.197632 
	C431.354706,145.454254 431.961914,146.989761 431.962952,148.525681 
	C432.009888,216.936096 432.078827,285.346741 431.882996,353.756653 
	C431.864105,360.364197 431.404846,367.309296 426.108002,372.801239 
	C425.288025,371.492859 425.089233,370.261627 424.890442,369.030365 
	C424.935822,295.670563 424.981171,222.310730 425.025482,148.484100 
z"/>
<path fill="#3B17ED" opacity="1.000000" stroke="none" 
	d="
M161.576904,68.891296 
	C162.270416,72.500229 161.777969,76.497421 163.072067,79.793098 
	C169.139252,95.244423 175.689102,110.506447 182.087387,125.827370 
	C183.682083,129.645966 185.354172,133.432205 186.668274,137.496201 
	C184.432449,136.755905 182.507278,135.774475 180.607712,134.745758 
	C172.750763,130.490829 164.901566,126.221611 156.896164,121.653915 
	C153.814484,119.267097 150.886169,117.184006 147.965408,114.714340 
	C146.370377,110.338928 144.491089,106.435455 143.227905,102.341873 
	C141.167267,95.664024 135.229279,89.752350 138.900101,81.858841 
	C138.900101,81.858841 138.955048,81.944496 139.144394,81.874161 
	C139.650223,81.662750 139.869751,81.430161 139.992310,81.106049 
	C147.066208,77.056145 154.140106,73.006248 161.576904,68.891296 
z"/>
<path fill="#1200D3" opacity="1.000000" stroke="none" 
	d="
M81.592178,114.935120 
	C91.602020,137.839111 101.283333,160.780807 110.803291,183.789276 
	C111.397392,185.225113 110.726662,187.184280 110.276718,188.976654 
	C102.041122,184.613464 94.173180,180.173599 86.144058,175.021423 
	C85.660629,172.550095 85.591751,170.695129 84.968941,169.049866 
	C83.044418,163.965958 81.027359,158.909561 78.830025,153.938034 
	C74.441650,144.009262 69.909454,134.144089 65.436653,124.252647 
	C70.700081,121.164436 75.963509,118.076225 81.592178,114.935120 
z"/>
<path fill="#0B017A" opacity="1.000000" stroke="none" 
	d="
M31.090973,339.465546 
	C42.698448,340.668274 54.236130,342.304840 65.762909,344.014893 
	C70.395035,344.702057 75.003220,345.550690 79.812439,346.669952 
	C69.318001,353.348846 58.599686,359.627808 47.967018,366.048553 
	C44.217606,368.312744 40.677662,370.923767 36.995102,373.734039 
	C32.723156,367.842834 30.325466,361.128723 30.936216,353.405518 
	C31.289425,348.939117 31.010977,344.422729 31.090973,339.465546 
z"/>
<path fill="#DE47AF" opacity="1.000000" stroke="none" 
	d="
M194.031128,50.118088 
	C195.443771,49.403793 196.856430,48.689499 198.926849,48.054535 
	C203.748093,50.703991 207.911560,53.274120 212.049957,56.257294 
	C214.828873,64.073425 217.616196,71.482880 220.441574,78.877800 
	C223.268921,86.277809 226.134308,93.663300 228.633041,101.001686 
	C221.524780,96.957985 214.766495,92.967758 208.005173,88.581146 
	C206.140930,83.071365 204.292084,77.953430 202.415619,72.845634 
	C199.631058,65.266014 196.826935,57.693577 194.031128,50.118088 
z"/>
<path fill="#1200DD" opacity="1.000000" stroke="none" 
	d="
M65.334488,124.349503 
	C69.909454,134.144089 74.441650,144.009262 78.830025,153.938034 
	C81.027359,158.909561 83.044418,163.965958 84.968941,169.049866 
	C85.591751,170.695129 85.660629,172.550095 85.964722,174.736755 
	C79.089386,171.319473 72.232216,167.474533 65.182701,162.942688 
	C64.987694,161.598465 65.184486,160.858963 64.952507,160.296204 
	C61.401665,151.682587 57.857845,143.064270 54.102329,134.539612 
	C53.732655,133.700485 51.984837,133.468491 50.876682,132.954697 
	C54.633499,130.634659 58.390316,128.314606 62.854256,125.958969 
	C64.086700,125.519386 64.612022,125.115410 65.137344,124.711441 
	C65.137344,124.711433 65.232323,124.446365 65.334488,124.349503 
z"/>
<path fill="#1300E5" opacity="1.000000" stroke="none" 
	d="
M50.579697,132.973328 
	C51.984837,133.468491 53.732655,133.700485 54.102329,134.539612 
	C57.857845,143.064270 61.401665,151.682587 64.952507,160.296204 
	C65.184486,160.858963 64.987694,161.598465 64.980087,162.675598 
	C54.078419,156.894577 43.187012,150.693726 32.116821,144.197723 
	C36.339935,141.268875 40.741833,138.635162 45.755032,135.881012 
	C46.559799,135.471298 46.753265,135.182007 46.946732,134.892715 
	C46.946732,134.892715 46.984184,134.980042 47.260872,134.952911 
	C48.009941,134.573425 48.482323,134.221085 48.954704,133.868744 
	C49.397373,133.576492 49.840042,133.284225 50.579697,132.973328 
z"/>
<path fill="#CF42B1" opacity="1.000000" stroke="none" 
	d="
M193.680756,50.154743 
	C196.826935,57.693577 199.631058,65.266014 202.415619,72.845634 
	C204.292084,77.953430 206.140930,83.071365 207.668884,88.501251 
	C205.268066,87.771217 203.200485,86.724709 201.132919,85.678192 
	C197.231522,83.293579 193.330139,80.908958 189.208130,77.874130 
	C188.481705,75.477051 188.060379,73.700256 187.454163,71.988968 
	C185.691864,67.014244 183.855469,62.065758 182.048141,57.106972 
	C185.808884,54.801781 189.569641,52.496593 193.680756,50.154743 
z"/>
<path fill="#3212EA" opacity="1.000000" stroke="none" 
	d="
M138.538879,81.909790 
	C135.229279,89.752350 141.167267,95.664024 143.227905,102.341873 
	C144.491089,106.435455 146.370377,110.338928 147.611847,114.653572 
	C139.171371,110.638321 131.092010,106.297264 123.012650,101.956215 
	C120.442612,100.118912 117.872574,98.281609 115.123878,96.151794 
	C122.689362,91.226433 130.433517,86.593590 138.538879,81.909790 
z"/>
<path fill="#F2AE94" opacity="1.000000" stroke="none" 
	d="
M214.646286,38.072266 
	C218.853500,40.343399 222.768829,42.753025 226.862213,45.857460 
	C227.550293,48.745800 227.949295,50.972507 228.593140,53.126022 
	C229.987625,57.790260 231.507431,62.417030 232.626221,67.004547 
	C226.834961,63.678276 221.393463,60.406570 215.965302,56.731312 
	C214.317734,50.922718 212.656876,45.517677 210.996002,40.112633 
	C212.115463,39.478676 213.234924,38.844719 214.646286,38.072266 
z"/>
<path fill="#3500F5" opacity="1.000000" stroke="none" 
	d="
M313.799133,417.288177 
	C314.388611,421.924103 314.774017,426.808746 314.977325,431.700958 
	C315.121948,435.181671 315.021301,438.672607 315.055054,442.632233 
	C307.962067,447.062317 300.844147,451.019135 293.347290,454.904541 
	C297.435242,449.043823 302.651337,443.669586 306.154419,437.346283 
	C309.529388,431.254333 311.134460,424.181824 313.799133,417.288177 
z"/>
<path fill="#BF3CB4" opacity="1.000000" stroke="none" 
	d="
M181.692078,57.136429 
	C183.855469,62.065758 185.691864,67.014244 187.454163,71.988968 
	C188.060379,73.700256 188.481705,75.477051 188.994568,77.610306 
	C182.113922,73.896233 175.226212,69.795776 168.200012,65.392899 
	C172.486359,62.448948 176.911179,59.807415 181.692078,57.136429 
z"/>
<path fill="#F72A9C" opacity="1.000000" stroke="none" 
	d="
M366.658966,391.201843 
	C367.325409,395.880005 367.696930,400.764130 367.988495,405.653046 
	C368.097321,407.478455 368.019653,409.314941 368.048889,411.619598 
	C361.966400,415.476837 355.862091,418.860870 349.465881,422.121613 
	C358.756531,413.969116 364.558502,403.819214 366.658966,391.201843 
z"/>
<path fill="#E5A397" opacity="1.000000" stroke="none" 
	d="
M210.660431,40.184052 
	C212.656876,45.517677 214.317734,50.922718 215.628998,56.663395 
	C214.211273,56.614105 213.143143,56.229176 212.075027,55.844246 
	C207.911560,53.274120 203.748093,50.703991 199.265381,47.976807 
	C202.739044,45.298317 206.531937,42.776890 210.660431,40.184052 
z"/>
<path fill="#9DFB4D" opacity="1.000000" stroke="none" 
	d="
M424.573364,369.177124 
	C425.089233,370.261627 425.288025,371.492859 425.784668,372.956085 
	C423.279358,376.712372 420.476196,380.236694 417.325165,383.809753 
	C416.781006,383.419708 416.290985,382.811340 416.431915,382.567200 
	C418.994843,378.126678 421.633667,373.729950 424.573364,369.177124 
z"/>
<path fill="#1200DD" opacity="1.000000" stroke="none" 
	d="
M48.641182,133.923981 
	C48.482323,134.221085 48.009941,134.573425 47.221485,134.926331 
	C47.379494,134.611008 47.853573,134.295120 48.641182,133.923981 
z"/>
<path fill="#1200D3" opacity="1.000000" stroke="none" 
	d="
M64.808914,124.837631 
	C64.612022,125.115410 64.086700,125.519386 63.216965,125.940208 
	C63.408527,125.625977 63.944500,125.294899 64.808914,124.837631 
z"/>
<path fill="#3212EA" opacity="1.000000" stroke="none" 
	d="
M139.718658,81.067253 
	C139.869751,81.430161 139.650223,81.662750 139.095123,81.861458 
	C139.052673,81.622215 139.248840,81.325340 139.718658,81.067253 
z"/>
<path fill="#1200DD" opacity="1.000000" stroke="none" 
	d="
M46.689934,134.979065 
	C46.753265,135.182007 46.559799,135.471298 46.119656,135.861176 
	C46.059696,135.662994 46.246418,135.364212 46.689934,134.979065 
z"/>
<path fill="#3200DD" opacity="1.000000" stroke="none" 
	d="
M115.409042,328.077087 
	C115.099861,327.930267 115.039757,327.455414 115.354530,327.079712 
	C123.616074,322.210846 131.615356,317.807495 139.495972,313.201141 
	C148.778458,307.775421 157.958145,302.173828 167.400940,296.704132 
	C167.619476,296.759735 168.060593,296.855255 168.199951,297.170898 
	C189.127151,309.419098 209.914978,321.351685 230.845398,333.455017 
	C231.238556,333.794769 231.513840,333.897552 231.813812,333.934174 
	C231.839005,353.631622 231.864212,373.329071 231.591248,393.524536 
	C231.127472,394.058868 230.961853,394.095245 230.796234,394.131592 
	C220.360748,388.306183 209.861313,382.591949 199.502136,376.633881 
	C171.542236,360.552734 143.642075,344.367706 115.409042,328.077087 
z"/>
<path fill="#0F01A8" opacity="1.000000" stroke="none" 
	d="
M157.049515,121.957642 
	C164.901566,126.221611 172.750763,130.490829 180.607712,134.745758 
	C182.507278,135.774475 184.432449,136.755905 186.674713,137.873901 
	C191.553207,140.769562 196.102859,143.550415 200.710968,146.939850 
	C200.876801,149.099869 200.632965,150.782700 201.155289,152.178879 
	C202.954529,156.988129 205.007385,161.703110 206.988754,166.443497 
	C215.937424,187.852966 224.978943,209.224213 233.802368,230.685135 
	C236.815125,238.012970 239.288055,245.562759 242.007629,253.011139 
	C237.902451,255.906830 233.797256,258.802551 229.162323,261.808228 
	C228.632584,261.918213 228.186874,261.886475 228.153320,261.524719 
	C225.733109,255.285873 220.185303,253.332047 214.945007,250.459930 
	C211.470474,248.174484 208.215286,246.153427 204.971069,243.722610 
	C202.077454,235.401566 199.450455,227.374908 196.219589,219.599197 
	C183.165421,188.182022 169.911728,156.847763 156.816910,125.447365 
	C156.415176,124.483994 156.950867,123.129684 157.049515,121.957642 
z"/>
<path fill="#0D019B" opacity="1.000000" stroke="none" 
	d="
M242.378479,253.003784 
	C239.288055,245.562759 236.815125,238.012970 233.802368,230.685135 
	C224.978943,209.224213 215.937424,187.852966 206.988754,166.443497 
	C205.007385,161.703110 202.954529,156.988129 201.155289,152.178879 
	C200.632965,150.782700 200.876801,149.099869 200.918655,147.204391 
	C211.144196,152.547028 221.220505,158.233719 231.850204,164.235992 
	C238.660248,168.338608 244.916885,172.125626 250.857986,176.064148 
	C250.302444,177.347061 249.543091,178.687073 249.901062,179.578323 
	C254.603104,191.285187 259.576080,202.883652 264.240570,214.605026 
	C267.044922,221.651993 269.430115,228.865768 272.003662,236.004578 
	C262.252197,241.668533 252.500748,247.332489 242.378479,253.003784 
z"/>
<path fill="#F01384" opacity="1.000000" stroke="none" 
	d="
M230.702805,333.284241 
	C209.914978,321.351685 189.127151,309.419098 168.407166,296.916809 
	C178.669067,290.551483 188.863113,284.755859 199.368515,279.108643 
	C210.350662,285.235657 221.021469,291.214294 231.692261,297.192932 
	C231.731613,308.793854 231.770981,320.394775 231.489517,332.513000 
	C231.013397,333.114960 230.858093,333.199615 230.702805,333.284241 
z"/>
<path fill="#0C0090" opacity="1.000000" stroke="none" 
	d="
M272.356018,235.966721 
	C269.430115,228.865768 267.044922,221.651993 264.240570,214.605026 
	C259.576080,202.883652 254.603104,191.285187 249.901062,179.578323 
	C249.543091,178.687073 250.302444,177.347061 251.197861,176.124100 
	C259.572296,180.327621 267.291321,184.622681 275.292938,189.114639 
	C288.478973,196.871490 301.382416,204.431442 314.285858,211.991394 
	C314.285858,211.991394 314.056763,212.000198 313.941711,212.007935 
	C301.553802,219.176300 289.282043,226.338806 277.006622,233.495010 
	C275.584290,234.324188 274.141632,235.118439 272.356018,235.966721 
z"/>
<path fill="#DD8A5D" opacity="1.000000" stroke="none" 
	d="
M231.705170,296.756104 
	C221.021469,291.214294 210.350662,285.235657 199.367950,278.865234 
	C199.056030,278.473450 199.130035,277.991791 199.475250,277.953827 
	C204.956757,275.247620 210.093033,272.579407 215.564529,269.982635 
	C220.877304,272.810059 225.854858,275.566010 230.832413,278.321960 
	C231.127640,284.321075 231.422867,290.320190 231.705170,296.756104 
z"/>
<path fill="#7FA6FA" opacity="1.000000" stroke="none" 
	d="
M230.900085,277.836212 
	C225.854858,275.566010 220.877304,272.810059 215.541626,269.749603 
	C215.183502,269.445099 215.246902,268.980835 215.538971,268.823242 
	C219.949661,266.405945 224.068268,264.146210 228.186874,261.886475 
	C228.186874,261.886475 228.632584,261.918213 228.854797,261.941284 
	C229.707275,267.093048 230.337524,272.221771 230.900085,277.836212 
z"/>
<path fill="#B30E82" opacity="1.000000" stroke="none" 
	d="
M230.845398,333.455017 
	C230.858093,333.199615 231.013397,333.114960 231.427338,332.971802 
	C231.743530,333.078613 231.801117,333.244019 231.836243,333.671814 
	C231.513840,333.897552 231.238556,333.794769 230.845398,333.455017 
z"/>
<path fill="#2200CB" opacity="1.000000" stroke="none" 
	d="
M230.944595,394.329651 
	C230.961853,394.095245 231.127472,394.058868 231.543335,393.987610 
	C231.793579,393.952667 231.922913,394.429016 231.953934,394.673218 
	C231.643127,394.889374 231.345795,394.759460 230.944595,394.329651 
z"/>
<path fill="#FFFFFF" opacity="1.000000" stroke="none" 
	d="
M1478.019287,284.000000 
	C1484.500122,284.000000 1490.488403,284.162048 1496.464844,283.963257 
	C1506.236572,283.638184 1512.987915,291.898529 1512.851440,301.084656 
	C1512.710449,310.559113 1506.846802,318.086975 1496.296631,318.014069 
	C1486.691650,317.947723 1477.085815,318.000000 1467.241699,318.000000 
	C1467.241699,306.643341 1467.241699,295.593414 1467.241699,284.000000 
	C1470.657715,284.000000 1474.089600,284.000000 1478.019287,284.000000 
z"/>
<path fill="#FFFFFF" opacity="1.000000" stroke="none" 
	d="
M1473.088135,221.000000 
	C1480.061890,221.000000 1486.547241,220.997253 1493.032471,221.000778 
	C1499.892456,221.004501 1505.850708,224.742294 1507.995850,230.380432 
	C1510.576538,237.163055 1509.208252,245.800827 1503.726929,249.466187 
	C1500.048096,251.926361 1495.219238,253.412338 1490.769043,253.808273 
	C1483.051636,254.494904 1475.229004,253.998978 1467.227783,253.998978 
	C1467.227783,242.942596 1467.227783,232.221344 1467.227783,221.000000 
	C1469.057129,221.000000 1470.828369,221.000000 1473.088135,221.000000 
z"/>
<path fill="#FFFFFF" opacity="1.000000" stroke="none" 
	d="
M1302.000000,291.000000 
	C1302.000000,267.525421 1302.000000,244.550842 1302.000000,220.992188 
	C1316.259277,221.434708 1330.695679,218.634537 1343.516602,227.186981 
	C1353.194824,233.643051 1360.044312,242.243866 1362.409424,253.878693 
	C1365.674561,269.939941 1365.582520,285.702423 1355.941895,299.831543 
	C1348.009277,311.457397 1336.776123,317.738220 1322.504639,317.980713 
	C1315.862793,318.093597 1309.217285,318.000000 1302.000000,318.000000 
	C1302.000000,309.028534 1302.000000,300.264252 1302.000000,291.000000 
z"/>
<path fill="#3600F1" opacity="1.000000" stroke="none" 
	d="
M167.182419,296.648529 
	C157.958145,302.173828 148.778458,307.775421 139.495972,313.201141 
	C131.615356,317.807495 123.616074,322.210846 115.355621,326.840393 
	C114.991379,289.441345 114.939232,251.905930 114.891693,214.370499 
	C114.883064,207.560532 114.893311,200.750549 114.902817,193.472275 
	C122.062805,196.971008 129.212448,200.942322 136.369003,204.901154 
	C137.654892,205.612457 138.969193,206.272385 140.624985,207.003815 
	C148.892990,211.818283 156.812943,216.574142 164.709991,221.367737 
	C165.529648,221.865280 166.213318,222.586914 167.101746,224.024063 
	C167.223083,248.778549 167.202759,272.713531 167.182419,296.648529 
z"/>
<path fill="#5727FE" opacity="1.000000" stroke="none" 
	d="
M314.563934,211.822906 
	C301.382416,204.431442 288.478973,196.871490 275.283936,188.741852 
	C274.857056,187.526703 274.822021,186.839340 274.572052,186.241867 
	C266.704376,167.437195 258.726624,148.677902 250.979904,129.823669 
	C248.353287,123.430908 246.302063,116.801735 244.302521,110.360786 
	C246.750427,111.588867 248.883728,112.736763 251.291870,114.094162 
	C259.022003,118.637566 266.466156,122.990646 273.934448,127.301987 
	C304.961212,145.213348 335.995270,163.112122 367.026642,181.015503 
	C367.049438,181.180786 367.072266,181.346069 367.032715,181.753662 
	C355.906372,188.256882 344.834503,194.504013 333.781342,200.784058 
	C327.452545,204.379883 321.154114,208.029190 314.563934,211.822906 
z"/>
<path fill="#FFFFFF" opacity="1.000000" stroke="none" 
	d="
M725.707153,274.000000 
	C711.752502,274.000000 698.262939,274.000000 684.762207,274.000000 
	C686.698425,262.281403 694.506836,256.364166 704.150574,255.145538 
	C714.674072,253.815765 726.671570,259.063751 729.927429,273.772461 
	C728.638733,273.850555 727.405457,273.925262 725.707153,274.000000 
z"/>
<path fill="#FFFFFF" opacity="1.000000" stroke="none" 
	d="
M1093.676758,310.818848 
	C1080.933472,321.243988 1062.720703,315.410461 1056.749268,304.063812 
	C1052.910156,296.768921 1051.024658,288.914886 1052.778442,280.279388 
	C1053.916748,274.673767 1054.917603,269.487762 1058.557129,264.723053 
	C1066.739014,254.011551 1082.265015,251.596527 1092.728271,260.246521 
	C1104.267212,269.785797 1105.348511,282.292175 1102.640625,295.803406 
	C1101.457886,301.704773 1098.590332,306.675079 1093.676758,310.818848 
z"/>
<path fill="#FE53AB" opacity="1.000000" stroke="none" 
	d="
M367.377075,180.972687 
	C335.995270,163.112122 304.961212,145.213348 273.934448,127.301987 
	C266.466156,122.990646 259.022003,118.637566 251.279999,113.715942 
	C247.844147,105.114838 244.619537,97.130096 241.568939,89.079407 
	C238.941010,82.144188 236.511353,75.133835 234.318420,68.254837 
	C275.508606,91.954605 316.390289,115.528793 357.231293,139.173294 
	C370.888763,147.080170 384.442261,155.166702 398.043274,163.171112 
	C387.938019,169.090698 377.832764,175.010300 367.377075,180.972687 
z"/>
<path fill="#FEB892" opacity="1.000000" stroke="none" 
	d="
M398.241089,163.149857 
	C384.442261,155.166702 370.888763,147.080170 357.231293,139.173294 
	C316.390289,115.528793 275.508606,91.954605 234.110992,68.106674 
	C233.378113,67.593300 233.177048,67.326210 232.975998,67.059120 
	C231.507431,62.417030 229.987625,57.790260 228.593140,53.126022 
	C227.949295,50.972507 227.550293,48.745800 227.072876,46.113289 
	C289.282166,81.571503 351.458862,117.468704 413.828186,153.639862 
	C409.175812,156.884109 404.330841,159.854385 399.161041,162.987671 
	C398.836212,163.150681 398.438934,163.128601 398.241089,163.149857 
z"/>
<path fill="#4E22F7" opacity="1.000000" stroke="none" 
	d="
M243.987915,110.280594 
	C246.302063,116.801735 248.353287,123.430908 250.979904,129.823669 
	C258.726624,148.677902 266.704376,167.437195 274.572052,186.241867 
	C274.822021,186.839340 274.857056,187.526703 275.001343,188.544952 
	C267.291321,184.622681 259.572296,180.327621 251.513397,175.972595 
	C244.916885,172.125626 238.660248,168.338608 232.200226,164.281906 
	C225.671036,148.689484 219.358093,133.361435 213.014297,118.046150 
	C209.586243,109.770073 206.037155,101.543297 202.696030,93.232628 
	C201.847351,91.121666 201.584427,88.775215 201.092651,86.107582 
	C203.200485,86.724709 205.268066,87.771217 207.671921,88.897629 
	C214.766495,92.967758 221.524780,96.957985 228.835754,101.271423 
	C234.254929,104.489952 239.121429,107.385269 243.987915,110.280594 
z"/>
<path fill="#1001B4" opacity="1.000000" stroke="none" 
	d="
M156.896164,121.653915 
	C156.950867,123.129684 156.415176,124.483994 156.816910,125.447365 
	C169.911728,156.847763 183.165421,188.182022 196.219589,219.599197 
	C199.450455,227.374908 202.077454,235.401566 204.636749,243.657043 
	C202.554871,243.103424 200.818298,242.205612 198.786316,241.095764 
	C188.976532,235.261871 179.462128,229.639999 169.947723,224.018127 
	C169.976700,222.372025 170.526215,220.514084 169.955612,219.111984 
	C162.781296,201.483246 155.438690,183.923004 148.152145,166.339874 
	C140.105042,146.921448 132.047653,127.507179 124.074783,108.058281 
	C123.406670,106.428497 123.346413,104.549530 123.008194,102.371277 
	C131.092010,106.297264 139.171371,110.638321 147.604279,115.040138 
	C150.886169,117.184006 153.814484,119.267097 156.896164,121.653915 
z"/>
<path fill="#FD2C98" opacity="1.000000" stroke="none" 
	d="
M169.588135,223.969666 
	C179.462128,229.639999 188.976532,235.261871 198.764709,241.542419 
	C199.069000,254.131332 199.099518,266.061554 199.130035,277.991791 
	C199.130035,277.991791 199.056030,278.473450 199.056610,278.716858 
	C188.863113,284.755859 178.669067,290.551483 168.267807,296.601196 
	C168.060593,296.855255 167.619476,296.759735 167.400940,296.704132 
	C167.202759,272.713531 167.223083,248.778549 167.168808,224.361145 
	C167.805649,223.892868 168.517105,223.907028 169.588135,223.969666 
z"/>
<path fill="#ED4DAD" opacity="1.000000" stroke="none" 
	d="
M244.302521,110.360786 
	C239.121429,107.385269 234.254929,104.489952 229.185730,101.324890 
	C226.134308,93.663300 223.268921,86.277809 220.441574,78.877800 
	C217.616196,71.482880 214.828873,64.073425 212.049957,56.257294 
	C213.143143,56.229176 214.211273,56.614105 215.615692,57.066952 
	C221.393463,60.406570 226.834961,63.678276 232.626221,67.004547 
	C233.177048,67.326210 233.378113,67.593300 233.786591,68.008545 
	C236.511353,75.133835 238.941010,82.144188 241.568939,89.079407 
	C244.619537,97.130096 247.844147,105.114838 251.005127,113.506424 
	C248.883728,112.736763 246.750427,111.588867 244.302521,110.360786 
z"/>
<path fill="#F09864" opacity="1.000000" stroke="none" 
	d="
M199.475250,277.953827 
	C199.099518,266.061554 199.069000,254.131332 199.060089,241.754456 
	C200.818298,242.205612 202.554871,243.103424 204.625778,244.066803 
	C208.215286,246.153427 211.470474,248.174484 214.882721,250.944061 
	C215.108810,257.455322 215.177856,263.218079 215.246902,268.980835 
	C215.246902,268.980835 215.183502,269.445099 215.206406,269.678131 
	C210.093033,272.579407 204.956757,275.247620 199.475250,277.953827 
z"/>
<path fill="#A6BFFD" opacity="1.000000" stroke="none" 
	d="
M215.538971,268.823242 
	C215.177856,263.218079 215.108810,257.455322 215.102066,251.208435 
	C220.185303,253.332047 225.733109,255.285873 228.153320,261.524719 
	C224.068268,264.146210 219.949661,266.405945 215.538971,268.823242 
z"/>
</svg>